<svg viewBox="0 0 32.108002 32.088002" xmlns="http://www.w3.org/2000/svg">
  <style>
    path {
    fill: black;
    }
    @media (prefers-color-scheme: dark) {
    path {
    fill: white;
    }
    }
  </style>
  <g transform="translate(0,-0.00238132)">
    <path
      d="m 16.725,28.978 h 0.012 c 0,-0.038 -0.012,-0.073 -0.012,-0.111 a 2.258,2.258 0 1 1 4.516,0 c 0,0.039 -0.009,0.073 -0.011,0.111 h 0.01 v 2.268 a 15.965,15.965 0 0 1 -4.514,0.844 z m -5.87,2.265 v -2.265 h 0.01 c 0,-0.038 -0.011,-0.073 -0.011,-0.111 a 2.258,2.258 0 1 1 4.516,0 c 0,0.039 -0.009,0.073 -0.011,0.111 h 0.01 V 32.09 A 16,16 0 0 1 10.855,31.242 Z M 22.031,25.829 H 10.076 v 5.124 q -0.244,-0.1 -0.483,-0.2 V 25.829 H 8.416 v 4.348 a 16.054,16.054 0 1 1 15.276,0 v -4.348 h -1.178 v 4.921 c -0.16,0.07 -0.321,0.137 -0.482,0.2 z M 7.731,25.391 H 24.374 V 24.438 H 7.733 Z M 22.512,23.976 H 23.69 V 12.562 h -1.176 z m -2,0 h 1.513 v -1.8 h -1.513 z m -5.644,0 h 2.359 v -1.8 h -2.359 z m -4.8,0 h 1.513 v -1.8 H 10.07 Z m -1.654,0 H 9.593 V 12.562 H 8.416 Z M 21.24,15.6 c 0,0.039 -0.01,0.074 -0.011,0.112 h 0.01 V 21.7 h 0.792 V 12.562 H 10.076 V 21.7 h 0.779 v -5.988 h 0.01 c 0,-0.038 -0.011,-0.073 -0.011,-0.112 a 2.258,2.258 0 1 1 4.515,0 c 0,0.039 -0.009,0.074 -0.01,0.112 h 0.01 V 21.7 h 1.356 v -5.988 h 0.011 c 0,-0.038 -0.011,-0.073 -0.011,-0.112 a 2.258,2.258 0 1 1 4.515,0 z M 7.733,12.068 H 24.374 V 11.116 H 7.733 Z M 15.458,7.6589996 4.921,10.659 H 27.186 L 16.648,7.6589996 v -0.667 h -1.191 z m -0.058,-1.819 a 0.656,0.656 0 1 0 0.656,-0.655 0.655,0.655 0 0 0 -0.656,0.655 z m 0.65,-4.872 -0.573,3.642 h 1.153 l -0.574,-3.642 v -0.045 0.023 -0.023 z"
      fill="currentColor"
    />
  </g>
</svg>
